<?xml version="1.0" encoding="UTF-8"?>
<svg xmlns="http://www.w3.org/2000/svg" xmlns:xlink="http://www.w3.org/1999/xlink" width="1920" height="1080" viewBox="0 0 1920 1080">
<defs>
<g>
<g id="glyph-0-0">
<path d="M 6.425781 0 L 4.765625 0 C 4.398438 -0.574219 4.066406 -1.074219 3.769531 -1.492188 C 3.472656 -1.914062 3.152344 -2.34375 2.804688 -2.789062 L 2.175781 -2.789062 L 2.175781 -0.835938 C 2.175781 -0.738281 2.191406 -0.648438 2.222656 -0.570312 C 2.253906 -0.492188 2.320312 -0.433594 2.425781 -0.394531 C 2.476562 -0.375 2.570312 -0.355469 2.699219 -0.339844 C 2.828125 -0.320312 2.941406 -0.3125 3.03125 -0.308594 L 3.03125 0 L 0.425781 0 L 0.425781 -0.308594 C 0.496094 -0.3125 0.59375 -0.324219 0.726562 -0.339844 C 0.859375 -0.351562 0.949219 -0.371094 1.003906 -0.394531 C 1.089844 -0.433594 1.152344 -0.488281 1.191406 -0.558594 C 1.230469 -0.632812 1.25 -0.726562 1.25 -0.835938 L 1.25 -5.292969 C 1.25 -5.390625 1.234375 -5.480469 1.207031 -5.558594 C 1.175781 -5.636719 1.109375 -5.699219 1.003906 -5.738281 C 0.929688 -5.765625 0.835938 -5.789062 0.71875 -5.808594 C 0.605469 -5.832031 0.507812 -5.84375 0.425781 -5.851562 L 0.425781 -6.160156 L 3.269531 -6.160156 C 3.527344 -6.160156 3.773438 -6.132812 4 -6.078125 C 4.230469 -6.023438 4.4375 -5.9375 4.621094 -5.820312 C 4.800781 -5.703125 4.945312 -5.554688 5.050781 -5.367188 C 5.160156 -5.179688 5.214844 -4.957031 5.214844 -4.691406 C 5.214844 -4.453125 5.175781 -4.246094 5.105469 -4.0625 C 5.03125 -3.878906 4.925781 -3.722656 4.785156 -3.589844 C 4.652344 -3.464844 4.496094 -3.355469 4.3125 -3.265625 C 4.132812 -3.175781 3.929688 -3.097656 3.710938 -3.035156 C 4.015625 -2.632812 4.265625 -2.292969 4.46875 -2.019531 C 4.667969 -1.742188 4.917969 -1.410156 5.207031 -1.015625 C 5.335938 -0.84375 5.449219 -0.714844 5.554688 -0.632812 C 5.65625 -0.550781 5.757812 -0.480469 5.859375 -0.429688 C 5.933594 -0.390625 6.027344 -0.363281 6.140625 -0.34375 C 6.253906 -0.324219 6.347656 -0.3125 6.425781 -0.308594 L 6.425781 0 M 4.140625 -4.589844 C 4.140625 -4.960938 4.035156 -5.257812 3.820312 -5.476562 C 3.605469 -5.695312 3.304688 -5.804688 2.914062 -5.804688 L 2.175781 -5.804688 L 2.175781 -3.164062 L 2.742188 -3.164062 C 3.140625 -3.164062 3.476562 -3.292969 3.742188 -3.546875 C 4.007812 -3.804688 4.140625 -4.152344 4.140625 -4.589844 Z "/>
</g>
<g id="glyph-0-1">
<path d="M 4.488281 -2.183594 C 4.488281 -1.882812 4.441406 -1.585938 4.34375 -1.296875 C 4.25 -1.003906 4.113281 -0.757812 3.9375 -0.554688 C 3.738281 -0.324219 3.503906 -0.152344 3.242188 -0.0390625 C 2.976562 0.0742188 2.683594 0.128906 2.355469 0.128906 C 2.082031 0.128906 1.824219 0.078125 1.578125 -0.0234375 C 1.332031 -0.125 1.113281 -0.277344 0.921875 -0.472656 C 0.734375 -0.667969 0.582031 -0.902344 0.472656 -1.183594 C 0.359375 -1.460938 0.304688 -1.773438 0.304688 -2.121094 C 0.304688 -2.789062 0.5 -3.335938 0.886719 -3.761719 C 1.277344 -4.1875 1.789062 -4.402344 2.417969 -4.402344 C 3.019531 -4.402344 3.515625 -4.199219 3.902344 -3.796875 C 4.292969 -3.390625 4.488281 -2.855469 4.488281 -2.183594 M 3.589844 -2.175781 C 3.589844 -2.390625 3.566406 -2.621094 3.523438 -2.863281 C 3.480469 -3.105469 3.414062 -3.308594 3.328125 -3.476562 C 3.234375 -3.65625 3.113281 -3.800781 2.964844 -3.910156 C 2.8125 -4.015625 2.628906 -4.070312 2.410156 -4.070312 C 2.1875 -4.070312 1.996094 -4.015625 1.839844 -3.90625 C 1.679688 -3.796875 1.554688 -3.644531 1.453125 -3.453125 C 1.363281 -3.277344 1.296875 -3.078125 1.257812 -2.851562 C 1.222656 -2.625 1.203125 -2.40625 1.203125 -2.195312 C 1.203125 -1.917969 1.226562 -1.660156 1.269531 -1.425781 C 1.316406 -1.191406 1.386719 -0.980469 1.484375 -0.792969 C 1.582031 -0.609375 1.707031 -0.464844 1.855469 -0.359375 C 2.007812 -0.253906 2.191406 -0.199219 2.410156 -0.199219 C 2.773438 -0.199219 3.058594 -0.375 3.273438 -0.726562 C 3.484375 -1.074219 3.589844 -1.558594 3.589844 -2.175781 Z "/>
</g>
<g id="glyph-0-2">
<path d="M 2.957031 -0.1875 C 2.769531 -0.109375 2.589844 -0.0429688 2.421875 0.0117188 C 2.253906 0.0625 2.046875 0.0898438 1.804688 0.0898438 C 1.445312 0.0898438 1.195312 0 1.046875 -0.179688 C 0.902344 -0.359375 0.828125 -0.617188 0.828125 -0.945312 L 0.828125 -3.84375 L 0.0546875 -3.84375 L 0.0546875 -4.261719 L 0.847656 -4.261719 L 0.847656 -5.59375 L 1.636719 -5.59375 L 1.636719 -4.261719 L 2.863281 -4.261719 L 2.863281 -3.84375 L 1.644531 -3.84375 L 1.644531 -1.453125 C 1.644531 -1.273438 1.652344 -1.125 1.664062 -1.003906 C 1.675781 -0.882812 1.707031 -0.78125 1.757812 -0.691406 C 1.804688 -0.605469 1.875 -0.542969 1.964844 -0.5 C 2.058594 -0.457031 2.183594 -0.433594 2.339844 -0.433594 C 2.410156 -0.433594 2.519531 -0.441406 2.660156 -0.453125 C 2.800781 -0.464844 2.898438 -0.484375 2.957031 -0.503906 Z "/>
</g>
</g>
</defs>
<g fill="rgb(100%, 100%, 100%)" fill-opacity="1">
<use xlink:href="#glyph-0-0" x="30" y="28.150391"/>
<use xlink:href="#glyph-0-1" x="36" y="28.150391"/>
<use xlink:href="#glyph-0-1" x="41" y="28.150391"/>
<use xlink:href="#glyph-0-2" x="46" y="28.150391"/>
</g>
</svg>
